<svg width="162" height="60" viewBox="0 0 162 60" fill="none" xmlns="http://www.w3.org/2000/svg">
<path d="M36.7799 4.01095C40.028 3.8461 39.7528 9.13112 40.1932 12.9295L41.129 5.77291C41.4594 1.14848 37.2203 0.928264 35.4035 0.708052C33.5868 0.487841 32.8161 0.597947 24.448 0.0474681C18.106 -0.481039 16.5939 3.53415 16.6306 5.6078V13.0399C16.8067 15.7706 16.4654 16.1229 14.8689 16.2881C14.5569 16.3064 12.5126 16.3651 6.83117 16.4532C1.14973 16.5413 -0.0871232 20.5271 0.0046314 22.509C0.151439 25.3167 0.478085 31.6148 0.610212 34.3454C0.77537 37.7587 2.04158 42.328 6.50086 41.7225C10.0683 41.238 13.566 40.6398 14.8689 40.4012C13.2907 40.1993 9.47371 39.7295 6.83119 39.4653C4.67312 38.9368 4.20701 37.5935 4.24371 36.9879C4.50063 33.4462 5.01445 25.9223 5.01445 24.1606C4.79424 21.9585 5.78519 22.0686 6.1155 21.9585C6.44582 21.8484 9.47372 21.9585 16.0801 21.9585C20.8366 21.3859 22.1726 17.6827 22.246 15.9027C22.2276 14.0125 22.1689 9.6707 22.0808 7.42455C21.6404 5.22243 22.7415 4.78201 23.347 4.83706L36.7799 4.01095Z" fill="#164E99"/>
<path d="M21.3658 39.8506C21.6301 33.4205 28.1556 28.73 31.3854 27.1885C22.2246 27.9812 18.5398 36.1805 17.8424 40.181C17.0937 42.5593 17.0166 50.4208 17.0717 54.0543C17.3359 58.2383 19.9895 59.7737 22.9073 59.8349C25.5315 59.8899 32.035 60 37.0558 60C41.4601 59.6697 43.2218 56.1647 43.2218 54.0543L43.1116 44.6953C43.0015 43.4842 43.442 43.1539 44.543 43.0988C45.4789 43.0988 48.6059 43.0217 53.6267 42.7134C58.4714 42.6253 59.4256 38.7129 59.2972 36.7677C58.9852 33.0975 58.2952 24.9864 58.0309 21.9034C57.7667 18.8205 54.581 18.4534 53.0211 18.6553L49.2776 19.1508C49.6079 19.2242 50.819 19.404 53.0211 19.5361C55.7077 20.0647 56.1592 21.5915 56.049 22.2888C55.8105 26.5095 55.3113 35.2482 55.2233 36.4374C54.8379 37.8687 54.3975 37.8137 53.7919 38.089C53.1863 38.3642 49.3877 37.5935 43.5521 37.8687C38.8836 38.089 37.6064 42.2913 37.5513 44.365C37.5146 46.6405 37.4412 51.4888 37.4412 52.678C37.5513 54.1093 37.0558 54.4947 36.6154 54.4947C36.175 54.4947 30.8899 53.8891 25.9352 54.4947C22.4999 55.4196 21.7145 53.6689 21.7512 52.678C21.5126 51.0814 21.1016 46.2808 21.3658 39.8506Z" fill="#008855"/>
<g clip-path="url(#clip0_5195_2241)">
<path d="M53.2604 27.3322L53.5484 27.4898L51.9965 30.3259L51.7737 30.3911L51.7085 30.1683L53.2604 27.3322ZM53.7055 25.6193C53.6449 25.637 53.5891 25.6796 53.5565 25.7391L53.243 26.312L54.417 26.9543L54.7304 26.3815C54.7972 26.2594 54.7526 26.1068 54.6305 26.04L53.898 25.6392C53.8354 25.6049 53.7684 25.6009 53.7055 25.6193ZM53.0598 26.6469L51.1653 30.1091L51.4311 31.0172L52.3392 30.7514L54.2337 27.2893L53.0598 26.6469Z" fill="#164E99"/>
</g>
<path d="M28.0771 31.4898H33.0614C33.0687 31.4898 33.0757 31.4867 33.0805 31.4811L33.8631 30.5843C33.8758 30.5697 33.8995 30.5741 33.9061 30.5923L35.2038 34.1481C35.2128 34.1729 35.249 34.1691 35.2528 34.143L36.446 25.9026C36.45 25.8747 36.4899 25.8732 36.4959 25.9008L37.8874 32.2203C37.8918 32.2406 37.9176 32.2472 37.9313 32.2315L39.8012 30.0917C39.8128 30.0785 39.8339 30.0807 39.8425 30.096L40.619 31.4769C40.6235 31.4849 40.6319 31.4898 40.6411 31.4898H51.97" stroke="#164E99" stroke-width="0.880845" stroke-linecap="round"/>
<path d="M75.528 32.8567H70.8132V19.5566H75.5669C76.9047 19.5566 78.0563 19.8229 79.0218 20.3554C79.9873 20.8836 80.7298 21.6434 81.2493 22.6349C81.7732 23.6263 82.0351 24.8126 82.0351 26.1937C82.0351 27.5791 81.7732 28.7697 81.2493 29.7655C80.7298 30.7612 79.9829 31.5254 79.0088 32.0579C78.039 32.5904 76.8787 32.8567 75.528 32.8567ZM73.6252 30.4474H75.4111C76.2423 30.4474 76.9415 30.3002 77.5087 30.0058C78.0802 29.707 78.5088 29.2459 78.7945 28.6225C79.0846 27.9947 79.2296 27.1851 79.2296 26.1937C79.2296 25.2109 79.0846 24.4078 78.7945 23.7843C78.5088 23.1609 78.0823 22.702 77.5152 22.4076C76.948 22.1132 76.2488 21.966 75.4175 21.966H73.6252V30.4474ZM96.9116 26.2067C96.9116 27.657 96.6367 28.8909 96.0868 29.9083C95.5413 30.9258 94.7967 31.7029 93.8529 32.2397C92.9134 32.7723 91.857 33.0385 90.6837 33.0385C89.5018 33.0385 88.4411 32.7701 87.5016 32.2332C86.5621 31.6964 85.8196 30.9193 85.2741 29.9018C84.7286 28.8844 84.4558 27.6527 84.4558 26.2067C84.4558 24.7563 84.7286 23.5224 85.2741 22.505C85.8196 21.4876 86.5621 20.7126 87.5016 20.1801C88.4411 19.6432 89.5018 19.3748 90.6837 19.3748C91.857 19.3748 92.9134 19.6432 93.8529 20.1801C94.7967 20.7126 95.5413 21.4876 96.0868 22.505C96.6367 23.5224 96.9116 24.7563 96.9116 26.2067ZM94.0607 26.2067C94.0607 25.2672 93.92 24.4749 93.6385 23.8298C93.3615 23.1847 92.9696 22.6955 92.4631 22.3621C91.9566 22.0288 91.3634 21.8621 90.6837 21.8621C90.004 21.8621 89.4108 22.0288 88.9043 22.3621C88.3978 22.6955 88.0038 23.1847 87.7224 23.8298C87.4453 24.4749 87.3067 25.2672 87.3067 26.2067C87.3067 27.1462 87.4453 27.9384 87.7224 28.5835C88.0038 29.2286 88.3978 29.7178 88.9043 30.0512C89.4108 30.3846 90.004 30.5513 90.6837 30.5513C91.3634 30.5513 91.9566 30.3846 92.4631 30.0512C92.9696 29.7178 93.3615 29.2286 93.6385 28.5835C93.92 27.9384 94.0607 27.1462 94.0607 26.2067ZM111.301 24.213H108.457C108.405 23.845 108.299 23.5181 108.138 23.2323C107.978 22.9423 107.773 22.6955 107.521 22.492C107.27 22.2885 106.98 22.1327 106.651 22.0244C106.327 21.9162 105.974 21.8621 105.593 21.8621C104.904 21.8621 104.305 22.0331 103.794 22.3751C103.283 22.7128 102.887 23.2064 102.605 23.8558C102.324 24.5009 102.183 25.2845 102.183 26.2067C102.183 27.1548 102.324 27.9514 102.605 28.5965C102.891 29.2416 103.289 29.7287 103.8 30.0577C104.311 30.3867 104.902 30.5513 105.573 30.5513C105.95 30.5513 106.298 30.5015 106.619 30.4019C106.943 30.3023 107.231 30.1573 107.482 29.9668C107.734 29.772 107.941 29.536 108.106 29.2589C108.275 28.9818 108.392 28.6658 108.457 28.3108L111.301 28.3238C111.227 28.9342 111.043 29.523 110.749 30.0902C110.459 30.653 110.067 31.1574 109.574 31.6033C109.084 32.0449 108.5 32.3956 107.82 32.6554C107.145 32.9108 106.381 33.0385 105.528 33.0385C104.341 33.0385 103.281 32.7701 102.346 32.2332C101.415 31.6964 100.679 30.9193 100.138 29.9018C99.6007 28.8844 99.3323 27.6527 99.3323 26.2067C99.3323 24.7563 99.6051 23.5224 100.151 22.505C100.696 21.4876 101.436 20.7126 102.372 20.1801C103.307 19.6432 104.359 19.3748 105.528 19.3748C106.298 19.3748 107.013 19.483 107.671 19.6995C108.333 19.916 108.92 20.232 109.431 20.6477C109.942 21.059 110.357 21.5633 110.678 22.1608C111.002 22.7583 111.21 23.4423 111.301 24.213Z" fill="#164E99"/>
<path d="M113.424 32.8567V19.5566H118.671C119.68 19.5566 120.539 19.7493 121.249 20.1346C121.959 20.5156 122.5 21.046 122.873 21.7257C123.249 22.4011 123.438 23.1804 123.438 24.0636C123.438 24.9468 123.247 25.7261 122.866 26.4015C122.485 27.0769 121.933 27.6029 121.21 27.9796C120.491 28.3562 119.621 28.5446 118.599 28.5446H115.255V26.2911H118.145C118.686 26.2911 119.132 26.198 119.483 26.0118C119.838 25.8213 120.102 25.5594 120.275 25.226C120.452 24.8884 120.541 24.5009 120.541 24.0636C120.541 23.622 120.452 23.2367 120.275 22.9076C120.102 22.5743 119.838 22.3167 119.483 22.1348C119.128 21.9487 118.677 21.8556 118.132 21.8556H116.236V32.8567H113.424ZM125.836 32.8567V19.5566H131.083C132.087 19.5566 132.944 19.7363 133.654 20.0957C134.369 20.4507 134.912 20.9551 135.285 21.6088C135.661 22.2582 135.85 23.0224 135.85 23.9012C135.85 24.7844 135.659 25.5443 135.278 26.1807C134.897 26.8128 134.345 27.2977 133.622 27.6354C132.903 27.9731 132.033 28.1419 131.011 28.1419H127.498V25.882H130.557C131.094 25.882 131.54 25.8084 131.895 25.6612C132.25 25.514 132.514 25.2932 132.687 24.9988C132.864 24.7043 132.953 24.3385 132.953 23.9012C132.953 23.4596 132.864 23.0873 132.687 22.7842C132.514 22.4812 132.247 22.2517 131.888 22.0959C131.533 21.9357 131.085 21.8556 130.544 21.8556H128.647V32.8567H125.836ZM133.018 26.8041L136.324 32.8567H133.219L129.985 26.8041H133.018ZM138.408 32.8567V19.5566H147.37V21.8751H141.22V25.0442H146.909V27.3626H141.22V30.5383H147.396V32.8567H138.408ZM150.177 32.8567V19.5566H155.425C156.433 19.5566 157.293 19.7493 158.003 20.1346C158.713 20.5156 159.254 21.046 159.626 21.7257C160.003 22.4011 160.191 23.1804 160.191 24.0636C160.191 24.9468 160.001 25.7261 159.62 26.4015C159.239 27.0769 158.687 27.6029 157.964 27.9796C157.245 28.3562 156.375 28.5446 155.353 28.5446H152.009V26.2911H154.899C155.44 26.2911 155.886 26.198 156.236 26.0118C156.591 25.8213 156.855 25.5594 157.029 25.226C157.206 24.8884 157.295 24.5009 157.295 24.0636C157.295 23.622 157.206 23.2367 157.029 22.9076C156.855 22.5743 156.591 22.3167 156.236 22.1348C155.881 21.9487 155.431 21.8556 154.886 21.8556H152.989V32.8567H150.177Z" fill="#008855"/>
<path d="M92.0654 33.2905C106.908 41.4369 137.756 39.2352 150.198 33.2352C150.199 33.2347 150.2 33.2345 150.201 33.2345L152.98 33.18C152.988 33.1798 152.992 33.1892 152.985 33.1933C141.075 40.7775 103.867 43.9607 89.9889 33.3028C89.9832 33.2984 89.9866 33.2895 89.9938 33.2895H92.0618C92.063 33.2895 92.0642 33.2899 92.0654 33.2905Z" fill="#008855"/>
<rect x="89.3662" y="24.3711" width="2.75264" height="4.51433" rx="1.37632" fill="#164E99"/>
<defs>
<clipPath id="clip0_5195_2241">
<rect width="6.05581" height="6.05581" fill="white" transform="matrix(0.95975 -0.280858 0.280902 0.959737 49.2168 26.1443)"/>
</clipPath>
</defs>
</svg>
