<svg width="200" height="54" viewBox="0 0 200 54" fill="none" xmlns="http://www.w3.org/2000/svg">
<rect y="0.5" width="200" height="53" rx="8" fill="white"/>
<circle cx="34.0859" cy="27.0009" r="16.9013" fill="url(#paint0_linear_4784_7773)"/>
<g clip-path="url(#clip0_4784_7773)">
<path fill-rule="evenodd" clip-rule="evenodd" d="M34.4428 30.0478C33.9367 29.3251 33.1099 28.8947 32.2276 28.8947H25.9743C25.5263 28.8947 25.1631 28.5315 25.1631 28.0834V26.0553C25.1631 25.6072 25.5263 25.244 25.9743 25.244H32.4362C33.3185 25.244 34.1453 24.8136 34.6514 24.0909L39.1902 17.6087C39.8021 16.7349 40.7275 16.211 41.708 16.0827C43.1889 15.8889 43.5802 17.704 42.7236 18.9274L38.0043 25.6672C37.3522 26.5985 37.3522 27.8381 38.0043 28.7694L42.821 35.6484C43.3993 36.4742 43.1986 37.6124 42.3728 38.1906C41.547 38.7689 40.4088 38.5682 39.8306 37.7424L34.4428 30.0478ZM25.1631 22.1191C25.1631 19.8788 26.9792 18.0628 29.2194 18.0628H34.3574C34.5067 18.0628 34.6278 18.1838 34.6278 18.3332C34.6278 20.5734 32.8117 22.3895 30.5715 22.3895H25.4335C25.2842 22.3895 25.1631 22.2684 25.1631 22.1191ZM25.1631 31.989C25.1631 31.8396 25.2842 31.7185 25.4335 31.7185H30.5715C32.8117 31.7185 34.6278 33.5346 34.6278 35.7748C34.6278 35.9242 34.5067 36.0453 34.3574 36.0453H29.2194C26.9792 36.0453 25.1631 34.2292 25.1631 31.989Z" fill="#FCFCFC"/>
</g>
<path fill-rule="evenodd" clip-rule="evenodd" d="M79.1274 37.7319V40.2527H89.5907V37.7319L86.3297 37.1718V33.7093L89.6975 30.3251L95.1725 37.3918L95.2325 37.4719L93.0318 37.7319V40.2527H102.815V37.7319L99.6939 37.2518L92.2258 27.7843L98.3134 21.6669L101.094 21.1468V18.606H91.7714V21.1468L94.0921 21.4068L93.9921 21.5269L86.3297 29.1567V9.04297H79.1274V11.5838L82.3885 12.1439V37.1718L79.1274 37.7319ZM77.0912 22.5005C75.5358 20.4849 73.3369 19.063 70.8607 18.4714C68.3845 17.8798 65.7803 18.1543 63.4819 19.2492C61.1834 20.344 59.3293 22.1931 58.2283 24.4887C57.1273 26.7842 56.8459 29.3876 57.4308 31.8654C58.0158 34.3432 59.4318 36.5459 61.4432 38.1066C63.4546 39.6674 65.9399 40.4921 68.4854 40.4434C71.0308 40.3947 73.4828 39.4756 75.433 37.839C77.3832 36.2025 78.714 33.9473 79.2037 31.4489L75.6358 30.7495C75.3059 32.4324 74.4094 33.9515 73.0958 35.0539C71.7821 36.1563 70.1304 36.7754 68.4158 36.8082C66.7012 36.841 65.0271 36.2855 63.6722 35.2341C63.4963 35.0977 63.3272 34.9539 63.1652 34.8034L76.4808 22.9715L77.0912 22.5005ZM71.7905 22.6783L61.2769 32.0204C61.1522 31.6993 61.0493 31.3684 60.9694 31.03C60.5754 29.361 60.765 27.6073 61.5066 26.061C62.2483 24.5147 63.4972 23.2691 65.0454 22.5317C66.5937 21.7942 68.3479 21.6093 70.0159 22.0078C70.6376 22.1563 71.2334 22.3825 71.7905 22.6783Z" fill="url(#paint1_linear_4784_7773)"/>
<path d="M111.399 40.8654C109.145 40.8654 107.431 40.3186 106.257 39.2249C105.084 38.1179 104.497 36.5641 104.497 34.5635C104.497 33.1897 104.87 31.996 105.617 30.9824C106.377 29.9554 107.471 29.1618 108.898 28.6016C110.325 28.0281 112.032 27.7413 114.02 27.7413H117.881V25.6207C117.881 24.3136 117.481 23.3 116.681 22.5797C115.894 21.8595 114.78 21.4994 113.34 21.4994C112.433 21.4994 111.646 21.6128 110.979 21.8395C110.312 22.0529 109.705 22.353 109.158 22.7398L108.738 25.7607H105.697V20.7992C106.671 20.0123 107.804 19.4187 109.098 19.0186C110.392 18.6051 111.826 18.3984 113.4 18.3984C116.027 18.3984 118.088 19.0253 119.581 20.279C121.075 21.5327 121.822 23.3266 121.822 25.6607V36.0839C121.822 36.364 121.822 36.6375 121.822 36.9042C121.836 37.171 121.856 37.4377 121.882 37.7045L123.983 37.9245V40.4453H118.321C118.201 39.8585 118.108 39.3316 118.041 38.8648C117.974 38.398 117.928 37.9312 117.901 37.4644C117.141 38.438 116.187 39.2516 115.04 39.9051C113.906 40.5453 112.693 40.8654 111.399 40.8654ZM111.979 37.5644C113.286 37.5644 114.48 37.251 115.56 36.6241C116.641 35.9973 117.414 35.2437 117.881 34.3634V30.4422H113.88C112.066 30.4422 110.705 30.8757 109.798 31.7426C108.891 32.6095 108.438 33.5765 108.438 34.6435C108.438 35.5905 108.731 36.3174 109.318 36.8242C109.905 37.3177 110.792 37.5644 111.979 37.5644ZM129.302 40.4453V37.9245L132.563 37.3643V21.8995L129.302 21.3393V18.7985H136.084L136.424 21.5594L136.464 21.9395C137.077 20.8325 137.831 19.9656 138.725 19.3387C139.632 18.7118 140.665 18.3984 141.826 18.3984C142.239 18.3984 142.659 18.4384 143.086 18.5185C143.526 18.5851 143.84 18.6518 144.026 18.7185L143.506 22.3797L140.765 22.2196C139.725 22.1529 138.851 22.393 138.144 22.9398C137.438 23.4733 136.891 24.1936 136.504 25.1005V37.3643L139.765 37.9245V40.4453H129.302ZM148.365 49.188C147.938 49.188 147.551 49.1547 147.204 49.088C146.858 49.0347 146.498 48.948 146.124 48.8279L146.384 45.827C146.571 45.8937 146.884 45.9537 147.324 46.0071C147.778 46.0604 148.125 46.0871 148.365 46.0871C149.152 46.0871 149.772 45.7403 150.225 45.0468C150.692 44.3665 150.926 43.4262 150.926 42.2259V21.8995L147.665 21.3393V18.7985H154.867V42.2259C154.867 44.4532 154.293 46.1671 153.146 47.3675C151.999 48.5812 150.405 49.188 148.365 49.188ZM150.726 13.4569V9.23555H154.867V13.4569H150.726ZM168.548 40.8654C166.294 40.8654 164.58 40.3186 163.407 39.2249C162.233 38.1179 161.646 36.5641 161.646 34.5635C161.646 33.1897 162.02 31.996 162.766 30.9824C163.527 29.9554 164.62 29.1618 166.047 28.6016C167.475 28.0281 169.182 27.7413 171.169 27.7413H175.03V25.6207C175.03 24.3136 174.63 23.3 173.83 22.5797C173.043 21.8595 171.929 21.4994 170.489 21.4994C169.582 21.4994 168.795 21.6128 168.128 21.8395C167.461 22.0529 166.854 22.353 166.308 22.7398L165.887 25.7607H162.846V20.7992C163.82 20.0123 164.954 19.4187 166.247 19.0186C167.541 18.6051 168.975 18.3984 170.549 18.3984C173.176 18.3984 175.237 19.0253 176.731 20.279C178.225 21.5327 178.971 23.3266 178.971 25.6607V36.0839C178.971 36.364 178.971 36.6375 178.971 36.9042C178.985 37.171 179.005 37.4377 179.031 37.7045L181.132 37.9245V40.4453H175.47C175.35 39.8585 175.257 39.3316 175.19 38.8648C175.124 38.398 175.077 37.9312 175.05 37.4644C174.29 38.438 173.336 39.2516 172.189 39.9051C171.056 40.5453 169.842 40.8654 168.548 40.8654ZM169.128 37.5644C170.435 37.5644 171.629 37.251 172.71 36.6241C173.79 35.9973 174.563 35.2437 175.03 34.3634V30.4422H171.029C169.215 30.4422 167.855 30.8757 166.948 31.7426C166.041 32.6095 165.587 33.5765 165.587 34.6435C165.587 35.5905 165.881 36.3174 166.468 36.8242C167.054 37.3177 167.941 37.5644 169.128 37.5644Z" fill="url(#paint2_linear_4784_7773)"/>
<path d="M75.3945 30.457L80.5978 31.2252L79.8295 36.6029L76.7566 36.987L75.3945 30.457Z" fill="white"/>
<defs>
<linearGradient id="paint0_linear_4784_7773" x1="46.3777" y1="39.2927" x2="17.9528" y2="8.56313" gradientUnits="userSpaceOnUse">
<stop offset="0.0702757" stop-color="#552A7B"/>
<stop offset="1" stop-color="#CF9EFD"/>
</linearGradient>
<linearGradient id="paint1_linear_4784_7773" x1="98.9446" y1="36.2586" x2="77.1946" y2="-3.69718" gradientUnits="userSpaceOnUse">
<stop offset="0.0702757" stop-color="#6B15B5"/>
<stop offset="1" stop-color="#CF9EFD"/>
</linearGradient>
<linearGradient id="paint2_linear_4784_7773" x1="103.608" y1="29.3977" x2="194.439" y2="39.3827" gradientUnits="userSpaceOnUse">
<stop stop-color="#6B15B5"/>
<stop offset="1" stop-color="#9C24C7"/>
</linearGradient>
<clipPath id="clip0_4784_7773">
<rect x="25.1621" y="18.0781" width="17.983" height="17.983" rx="2.70421" fill="white"/>
</clipPath>
</defs>
</svg>
